<svg width="50" height="50" viewBox="0 0 50 50" fill="none" xmlns="http://www.w3.org/2000/svg">
<g clip-path="url(#clip0_1669_981)">
<path d="M18.8911 16.9486L26.9409 24.9992L18.8911 33.0498L22.8593 37.0187L34.8788 24.9992L22.8593 12.9805L18.8911 16.9486Z" fill="#1A1A1A"/>
<path d="M24.9992 0C11.192 0.00146484 0.00146484 11.192 0 25C0.00146484 38.808 11.192 49.9984 24.9992 50C38.808 49.9984 49.9985 38.808 50 25C49.9985 11.192 38.808 0.00146484 24.9992 0ZM39.9009 39.9009C36.0808 43.7172 30.8249 46.0717 24.9992 46.0732C19.1743 46.0717 13.9185 43.7172 10.0991 39.9009C6.28203 36.0814 3.92754 30.8249 3.92676 25C3.92754 19.1743 6.28203 13.9185 10.0991 10.0991C13.9185 6.28203 19.1743 3.92754 24.9992 3.92676C30.8249 3.92754 36.0809 6.28203 39.9009 10.0991C43.718 13.9185 46.0725 19.1743 46.0732 25C46.0725 30.8249 43.718 36.0814 39.9009 39.9009Z" fill="#1A1A1A"/>
</g>
<defs>
<clipPath id="clip0_1669_981">
<rect width="50" height="50" fill="white"/>
</clipPath>
</defs>
</svg>
